<svg width="14" height="14" viewBox="0 0 14 14" fill="none" xmlns="http://www.w3.org/2000/svg">
<rect width="14" height="14" rx="7" fill="#5493F5"/>
<path fill-rule="evenodd" clip-rule="evenodd" d="M9.01611 7.6618C8.88801 7.7917 8.8298 7.9789 8.85981 8.1625L9.05331 9.3373C9.11361 9.703 8.83461 10 8.51811 10C8.43471 10 8.34861 9.9793 8.26521 9.9337L7.25271 9.379C7.17351 9.3358 7.08681 9.3142 6.99981 9.3142C6.91311 9.3142 6.82641 9.3358 6.74721 9.379L5.73471 9.9337C5.65131 9.9793 5.56521 10 5.48181 10C5.16531 10 4.88631 9.703 4.94661 9.3373L5.14011 8.1625C5.17011 7.9789 5.11191 7.7917 4.98381 7.6618L4.16451 6.8299C3.84231 6.5026 4.02021 5.9323 4.46541 5.8648L5.59761 5.6935C5.77461 5.6668 5.92761 5.551 6.00651 5.3839L6.51291 4.3153C6.61251 4.105 6.80631 4 6.99981 4C7.19361 4 7.38741 4.105 7.48701 4.3153L7.99341 5.3839C8.07231 5.551 8.22531 5.6668 8.40231 5.6935L9.53451 5.8648C9.97971 5.9323 10.1576 6.5026 9.83541 6.8299L9.01611 7.6618Z" fill="white"/>
</svg>
