<svg width="14" height="17" viewBox="0 0 14 17" fill="none" xmlns="http://www.w3.org/2000/svg">
<path d="M11.6667 15.6667H2.33333C1.97971 15.6667 1.64057 15.5262 1.39052 15.2761C1.14048 15.0261 1 14.687 1 14.3333V5L5 1H11.6667C12.0203 1 12.3594 1.14048 12.6095 1.39052C12.8595 1.64057 13 1.97971 13 2.33333V14.3333C13 14.687 12.8595 15.0261 12.6095 15.2761C12.3594 15.5262 12.0203 15.6667 11.6667 15.6667Z" stroke="#8D97A6" stroke-width="1.33333" stroke-linejoin="round"/>
<path d="M5 1V3.66667C5 4.02029 4.85952 4.35943 4.60948 4.60948C4.35943 4.85952 4.02029 5 3.66667 5H1" stroke="#8D97A6" stroke-width="1.33333" stroke-linejoin="round"/>
<path d="M3.66602 7.66663H10.3327" stroke="#8D97A6" stroke-width="1.33333" stroke-linejoin="round"/>
<path d="M3.66602 10.3333H10.3327" stroke="#8D97A6" stroke-width="1.33333" stroke-linejoin="round"/>
<path d="M3.66602 13H7.66602" stroke="#8D97A6" stroke-width="1.33333" stroke-linejoin="round"/>
</svg>
