<svg width="26" height="34" viewBox="0 0 26 34" fill="none" xmlns="http://www.w3.org/2000/svg">
<mask id="mask0" mask-type="alpha" maskUnits="userSpaceOnUse" x="0" y="0" width="26" height="34">
<path fill-rule="evenodd" clip-rule="evenodd" d="M2.6 34C1.17 34 0 32.7661 0 31.2581V2.74194C0 1.23387 1.17 0 2.6 0H17.182C17.884 0 18.534 0.274194 19.028 0.795161L25.246 7.25847C25.74 7.77944 26 8.46492 26 9.20524V31.2581C26 32.7661 24.83 34 23.4 34H2.6Z" fill="white"/>
</mask>
<g mask="url(#mask0)">
<path fill-rule="evenodd" clip-rule="evenodd" d="M2.6 34C1.17 34 0 32.7661 0 31.2581V2.74194C0 1.23387 1.17 0 2.6 0H17.182C17.884 0 18.534 0.274194 19.028 0.795161L25.246 7.25847C25.74 7.77944 26 8.46492 26 9.20524V31.2581C26 32.7661 24.83 34 23.4 34H2.6Z" fill="#4B71BC"/>
<rect opacity="0.5" x="5" y="21.5" width="16" height="2" fill="white"/>
<rect opacity="0.5" x="5" y="26.5" width="10" height="2" fill="white"/>
<path d="M9.98387 17.1162H11.5661L9.14194 10H7.42419L5 17.1162H6.46613L7.00323 15.4197H9.45645L9.98387 17.1162ZM8.19355 11.4795H8.28065L9.14677 14.2707H7.31774L8.19355 11.4795Z" fill="white"/>
<path d="M14.4645 16.12C13.9758 16.12 13.6323 15.8734 13.6323 15.469C13.6323 15.0795 13.9274 14.8575 14.5323 14.8131L15.6113 14.7441V15.1436C15.6113 15.6959 15.1177 16.12 14.4645 16.12ZM14 17.2C14.6919 17.2 15.2726 16.9041 15.5484 16.406H15.6355V17.1162H17V13.4027C17 12.2389 16.2016 11.5584 14.7887 11.5584C13.4484 11.5584 12.5435 12.1896 12.4516 13.1956H13.7484C13.8645 12.8701 14.2032 12.6926 14.7113 12.6926C15.2919 12.6926 15.6113 12.949 15.6113 13.4027V13.8466L14.3194 13.9255C12.9935 14.0044 12.2532 14.5764 12.2532 15.5627C12.2532 16.5589 12.9742 17.2 14 17.2Z" fill="white"/>
<path opacity="0.3" fill-rule="evenodd" clip-rule="evenodd" d="M18 -1L28 9H18V-1Z" fill="white"/>
</g>
</svg>
