<svg width="18" height="18" viewBox="0 0 18 18" fill="none" xmlns="http://www.w3.org/2000/svg">
<path d="M9.00531 10.6547C8.52487 10.6547 8.04443 10.5835 7.58179 10.459L3.59595 9.26679V11.9893C3.59595 12.4875 3.91624 12.9145 4.39667 13.0569L6.14048 13.5729C8.06223 14.1423 10.0907 14.1423 12.0125 13.5729L13.7563 13.0569C14.2367 12.9145 14.557 12.4875 14.557 11.9893V9.2312L10.4288 10.459C9.96618 10.6013 9.48574 10.6547 9.00531 10.6547Z" fill="#2737A0"/>
<path d="M17.1017 6.24184L10.073 4.15995C9.37908 3.94642 8.63173 3.94642 7.91997 4.15995L0.909156 6.24184C0.428719 6.38419 0.428719 7.07815 0.909156 7.22051L7.93777 9.3024C8.63173 9.51593 9.37908 9.51593 10.0908 9.3024L16.1052 7.523V9.10666C15.9806 9.17784 15.8917 9.3024 15.8917 9.44475V9.87181C15.8917 10.032 15.9806 10.1743 16.123 10.2277L15.7493 11.0996C15.6959 11.2241 15.7671 11.3487 15.9095 11.3665L16.3009 11.4021C16.3721 11.4021 16.4611 11.4021 16.5322 11.4021L16.9237 11.3665C17.0483 11.3487 17.1194 11.2241 17.0839 11.0996L16.7102 10.2277C16.8525 10.1565 16.9415 10.032 16.9415 9.87181V9.44475C16.9415 9.3024 16.8525 9.17784 16.728 9.10666V7.34506L17.1194 7.22051C17.5821 7.06036 17.5821 6.38419 17.1017 6.24184Z" fill="#2737A0"/>
</svg>
