<svg width="117" height="32" viewBox="0 0 117 32" fill="none" xmlns="http://www.w3.org/2000/svg">
<path fill-rule="evenodd" clip-rule="evenodd" d="M14.0445 20.3898C15.2923 21.3354 17.4061 21.3354 18.6539 20.3898C19.7152 19.5892 20.9336 21.2031 19.8723 22.0036C19.7511 22.0953 19.6243 22.1822 19.4936 22.2636C18.0248 23.1741 16.1088 23.3527 14.4718 22.8384C14.0062 22.6925 13.5669 22.4924 13.1722 22.2436C13.0534 22.1679 12.9377 22.0881 12.8269 22.0036C11.7648 21.2031 12.9832 19.5892 14.0445 20.3898ZM6.64186 2.93896C6.82047 3.05298 7.00864 3.17736 7.20399 3.30893C5.61806 4.73459 4.33991 6.47601 3.42535 8.40081C2.64793 7.45914 2.20062 6.4784 2.06586 5.54629C1.69191 2.96288 3.5896 0.990232 6.64186 2.93896ZM22.1719 9.53385C22.8608 8.84493 22.8608 7.71349 22.1719 7.02538C21.4837 6.33647 20.3523 6.33647 19.6634 7.02538C18.9753 7.71349 18.9753 8.84493 19.6634 9.53385C20.3523 10.2228 21.4837 10.2228 22.1719 9.53385ZM24.9961 1.23821C24.6604 1.4527 24.3135 1.68233 23.9603 1.92313C22.8281 1.17522 21.573 0.562054 20.2008 0.120322C19.2647 -0.181874 18.4076 0.142648 17.5656 0.461588C16.4979 0.865845 16.4588 0.865845 15.3904 0.461588C14.5484 0.142648 13.6912 -0.181874 12.7551 0.120322C11.3351 0.577204 10.0402 1.21827 8.87683 2.00287C8.48374 1.73177 8.09782 1.47582 7.72546 1.23821C1.47423 -2.75333 -3.10575 4.85818 2.60009 10.4851C1.97815 12.4258 1.71184 14.4631 1.83224 16.4588C2.23331 23.1287 9.50993 32 16.478 32C23.4468 32 30.7234 23.1287 31.1245 16.4588C31.2473 14.4017 30.9619 12.2999 30.2969 10.3065C35.73 4.69871 31.1819 -2.71107 24.9961 1.23821ZM25.6507 3.21883C25.7942 3.12315 25.9377 3.02986 26.0797 2.93896C29.1319 0.990232 31.0296 2.96288 30.6557 5.54629C30.5289 6.4186 30.1302 7.33316 29.4429 8.21822C28.5156 6.32531 27.2318 4.61579 25.6507 3.21883ZM23.5569 10.9188C23.1199 11.3566 22.5745 11.6851 21.9646 11.8629C22.4135 13.8395 22.6399 15.8529 22.6495 17.8797C22.6519 18.4729 22.4398 18.9394 22.1041 19.2807C21.817 19.5717 21.4503 19.7535 21.0572 19.8324C20.7063 19.9034 20.3324 19.8906 19.9839 19.7997C19.4234 19.6538 18.9059 19.3046 18.6117 18.772C18.4315 18.4466 18.0974 18.0009 17.5927 17.6676C17.261 17.4491 16.8487 17.2785 16.3496 17.2251C15.8497 17.2785 15.4374 17.4491 15.1057 17.6676C14.601 18.0009 14.2669 18.4466 14.0867 18.772C13.7925 19.3046 13.275 19.6538 12.7145 19.7997C12.366 19.8906 11.9921 19.9034 11.6405 19.8324C11.2482 19.7535 10.8814 19.5717 10.5943 19.2807C10.2586 18.9394 10.0465 18.4729 10.0489 17.8797C10.0617 15.1177 10.4955 12.2034 11.3574 9.57611C11.2466 9.61039 11.1293 9.62873 11.0082 9.62873C10.3511 9.62873 9.8185 9.0961 9.8185 8.43908C9.8185 7.78286 10.3511 7.25023 11.0082 7.25023C11.4746 7.25023 11.8781 7.51974 12.0726 7.91124C12.1771 7.73263 12.2863 7.56439 12.4035 7.40572C11.5185 6.5677 10.1861 5.48171 8.89437 4.51612C5.48171 7.3818 3.58242 11.8964 3.84954 16.34C4.11187 20.7039 7.46074 25.3525 10.9787 27.8761C9.65026 26.3452 8.62726 24.5815 7.78287 22.6909C7.55562 22.1814 7.78367 21.585 8.29238 21.3578C8.80188 21.1305 9.3983 21.3586 9.62555 21.8681C11.1246 25.2233 13.165 28.0236 16.545 29.659C19.9249 28.0236 21.9653 25.2233 23.4644 21.8681C23.6916 21.3586 24.2888 21.1305 24.7975 21.3578C25.3062 21.585 25.5351 22.1814 25.3078 22.6909C24.5121 24.473 23.5569 26.1427 22.3377 27.6098C25.6858 25.0646 28.8521 20.5819 29.1064 16.34C29.3767 11.8478 27.4328 7.28452 23.9507 4.42362C23.6214 4.66921 23.2953 4.91718 22.9756 5.16436C23.1853 5.3039 23.3798 5.46337 23.5569 5.64038C24.233 6.31574 24.6508 7.24944 24.6508 8.27961C24.6508 9.31059 24.233 10.2435 23.5569 10.9188ZM19.8914 11.8685C19.5438 11.7696 19.2185 11.6221 18.9203 11.4331C18.9617 11.9658 18.5463 12.6627 17.3878 13.5262C17.379 13.5326 17.3702 13.5397 17.3622 13.5461V15.3673C17.8678 15.51 18.3135 15.7277 18.7002 15.9828C19.5398 16.5362 20.0892 17.2681 20.3834 17.7992C20.5046 17.9626 20.6401 17.8255 20.629 17.5847C20.5341 15.5889 20.3627 13.8132 19.8914 11.8685ZM17.8239 10.3671C15.6886 9.64229 11.5113 10.6956 15.3107 13.5262C15.3173 13.531 15.324 13.5364 15.3307 13.5414C15.3328 13.543 15.3349 13.5446 15.337 13.5461V15.3673C14.8307 15.51 14.3849 15.7277 13.9982 15.9828C13.1586 16.5362 12.6419 17.2339 12.3485 17.7657C12.193 17.9642 12.0694 17.847 12.071 17.5225C12.083 15.2827 12.6953 10.9651 13.7774 9.00441C14.003 8.59536 14.1824 8.40799 14.5085 8.09144C14.8905 7.71987 14.9957 7.12106 14.5516 6.66338C13.4664 5.55108 12.0654 4.36063 10.6374 3.27703C11.4786 2.7755 12.3916 2.35849 13.3723 2.04273C13.6354 1.95742 14.1617 2.15676 14.6792 2.3529C16.2364 2.94215 16.7196 2.94215 18.2776 2.3529C18.7943 2.15676 19.3213 1.95742 19.5837 2.04273C20.5134 2.34174 21.3817 2.73244 22.187 3.19889C21.5978 3.64302 21.0125 4.10708 20.4504 4.57592C19.6068 4.68197 18.8501 5.06868 18.2792 5.64038C17.6038 6.31574 17.186 7.24944 17.186 8.27961C17.186 9.05304 17.4212 9.77146 17.8239 10.3671ZM61.8177 8.62881C61.1918 8.62881 60.6831 9.13672 60.6831 9.76344L60.6775 17.9036C60.6767 18.8477 60.286 19.7104 59.6577 20.3387C59.0326 20.9638 58.1707 21.3521 57.2242 21.3521H57.2202V21.3569C56.2746 21.3561 55.4118 20.9662 54.7835 20.3387C54.1616 19.716 53.7749 18.8556 53.7749 17.9068V17.9036H53.7701L53.7773 9.76344C53.7773 9.13672 53.2686 8.62881 52.6418 8.62881C52.0159 8.62881 51.5072 9.13672 51.5072 9.76344L51.5008 17.9036H51.4968V17.9068C51.4968 19.4792 52.1427 20.9096 53.1816 21.9494C54.2158 22.9827 55.6455 23.6254 57.2202 23.6262V23.6302H57.2242C58.7998 23.6302 60.231 22.9867 61.2684 21.9494C62.3025 20.9152 62.9452 19.4823 62.9468 17.9036L62.9524 9.76344C62.9524 9.13672 62.4445 8.62881 61.8177 8.62881ZM38.5534 10.6868C38.7719 10.9052 39.0406 11.0137 39.3596 11.0137H42.7611V22.3504C42.7611 22.6694 42.8695 22.9389 43.088 23.1565C43.3064 23.375 43.5752 23.4843 43.8941 23.4843C44.2138 23.4843 44.4817 23.375 44.7002 23.1565C44.9195 22.9389 45.0279 22.6694 45.0279 22.3504V11.0137H48.4286C48.7484 11.0137 49.0171 10.9052 49.2348 10.6868C49.454 10.4683 49.5625 10.1996 49.5625 9.88065C49.5625 9.56091 49.454 9.293 49.2348 9.07453C49.0171 8.85606 48.7484 8.74682 48.4286 8.74682H39.3596C39.0406 8.74682 38.7719 8.85606 38.5534 9.07453C38.335 9.293 38.2257 9.56091 38.2257 9.88065C38.2257 10.1996 38.335 10.4683 38.5534 10.6868ZM65.0741 10.6868C65.2926 10.9052 65.5613 11.0137 65.8802 11.0137H69.2809V22.3504C69.2809 22.6694 69.3902 22.9389 69.6087 23.1565C69.8271 23.375 70.0958 23.4843 70.4148 23.4843C70.7337 23.4843 71.0024 23.375 71.2209 23.1565C71.4394 22.9389 71.5486 22.6694 71.5486 22.3504V11.0137H74.9493C75.2683 11.0137 75.537 10.9052 75.7554 10.6868C75.9739 10.4683 76.0831 10.1996 76.0831 9.88065C76.0831 9.56091 75.9739 9.293 75.7554 9.07453C75.537 8.85606 75.2683 8.74682 74.9493 8.74682H65.8802C65.5613 8.74682 65.2926 8.85606 65.0741 9.07453C64.8557 9.293 64.7464 9.56091 64.7464 9.88065C64.7464 10.1996 64.8557 10.4683 65.0741 10.6868ZM78.3907 10.5735C76.9212 12.0431 76.186 13.8275 76.186 15.927C76.186 18.0264 76.9212 19.8109 78.3907 21.2804C79.8602 22.7499 81.6447 23.4843 83.7441 23.4843C85.8435 23.4843 87.628 22.7499 89.0975 21.2804C90.567 19.8109 91.3022 18.0264 91.3022 15.927C91.3022 13.8275 90.567 12.0431 89.0975 10.5735C87.628 9.10403 85.8435 8.36887 83.7441 8.36887C81.6447 8.36887 79.8602 9.10403 78.3907 10.5735ZM80.0029 19.6673C78.9696 18.6348 78.4537 17.3877 78.4537 15.927C78.4537 14.4654 78.9696 13.2184 80.0029 12.1858C81.0355 11.1524 82.2825 10.6365 83.7441 10.6365C85.2048 10.6365 86.4527 11.1524 87.4853 12.1858C88.5178 13.2184 89.0345 14.4654 89.0345 15.927C89.0345 17.3877 88.5178 18.6348 87.4853 19.6673C86.4527 20.7007 85.2048 21.2174 83.7441 21.2174C82.2825 21.2174 81.0355 20.7007 80.0029 19.6673ZM94.0235 23.3997C94.6526 23.3997 95.1629 22.8902 95.1629 22.2611V10.9419H99.6496C100.534 10.9419 101.088 11.4076 101.324 12.0048C101.428 12.2687 101.48 12.5534 101.479 12.8364C101.479 13.1187 101.425 13.4041 101.321 13.6705C101.081 14.2804 100.523 14.7588 99.6496 14.7588H97.5733C96.945 14.7588 96.4347 15.2683 96.4347 15.8983C96.4347 16.1909 96.5448 16.4572 96.7266 16.6597L101.473 22.9755C101.849 23.4763 102.56 23.5783 103.062 23.202C103.563 22.8264 103.664 22.1152 103.288 21.6137L99.8458 17.0329C101.695 16.9611 102.897 15.8743 103.439 14.4981C103.644 13.9766 103.748 13.4081 103.748 12.8364C103.749 12.2663 103.648 11.6986 103.442 11.1771C102.884 9.76503 101.623 8.66389 99.6496 8.66389H94.0235C93.3944 8.66389 92.8841 9.1742 92.8841 9.80251V22.2611C92.8841 22.8902 93.3944 23.3997 94.0235 23.3997Z" fill="url(#paint0_radial)"/>
<path fill-rule="evenodd" clip-rule="evenodd" d="M14.0445 20.3898C15.2923 21.3354 17.4061 21.3354 18.6539 20.3898C19.7152 19.5892 20.9336 21.2031 19.8723 22.0036C19.7511 22.0953 19.6243 22.1822 19.4936 22.2636C18.0248 23.1741 16.1088 23.3527 14.4718 22.8384C14.0062 22.6925 13.5669 22.4924 13.1722 22.2436C13.0534 22.1679 12.9377 22.0881 12.8269 22.0036C11.7648 21.2031 12.9832 19.5892 14.0445 20.3898ZM6.64186 2.93896C6.82047 3.05298 7.00864 3.17736 7.20399 3.30893C5.61806 4.73459 4.33991 6.47601 3.42535 8.40081C2.64793 7.45914 2.20062 6.4784 2.06586 5.54629C1.69191 2.96288 3.5896 0.990232 6.64186 2.93896ZM22.1719 9.53385C22.8608 8.84493 22.8608 7.71349 22.1719 7.02538C21.4837 6.33647 20.3523 6.33647 19.6634 7.02538C18.9753 7.71349 18.9753 8.84493 19.6634 9.53385C20.3523 10.2228 21.4837 10.2228 22.1719 9.53385ZM24.9961 1.23821C24.6604 1.4527 24.3135 1.68233 23.9603 1.92313C22.8281 1.17522 21.573 0.562054 20.2008 0.120322C19.2647 -0.181874 18.4076 0.142648 17.5656 0.461588C16.4979 0.865845 16.4588 0.865845 15.3904 0.461588C14.5484 0.142648 13.6912 -0.181874 12.7551 0.120322C11.3351 0.577204 10.0402 1.21827 8.87683 2.00287C8.48374 1.73177 8.09782 1.47582 7.72546 1.23821C1.47423 -2.75333 -3.10575 4.85818 2.60009 10.4851C1.97815 12.4258 1.71184 14.4631 1.83224 16.4588C2.23331 23.1287 9.50993 32 16.478 32C23.4468 32 30.7234 23.1287 31.1245 16.4588C31.2473 14.4017 30.9619 12.2999 30.2969 10.3065C35.73 4.69871 31.1819 -2.71107 24.9961 1.23821ZM25.6507 3.21883C25.7942 3.12315 25.9377 3.02986 26.0797 2.93896C29.1319 0.990232 31.0296 2.96288 30.6557 5.54629C30.5289 6.4186 30.1302 7.33316 29.4429 8.21822C28.5156 6.32531 27.2318 4.61579 25.6507 3.21883ZM23.5569 10.9188C23.1199 11.3566 22.5745 11.6851 21.9646 11.8629C22.4135 13.8395 22.6399 15.8529 22.6495 17.8797C22.6519 18.4729 22.4398 18.9394 22.1041 19.2807C21.817 19.5717 21.4503 19.7535 21.0572 19.8324C20.7063 19.9034 20.3324 19.8906 19.9839 19.7997C19.4234 19.6538 18.9059 19.3046 18.6117 18.772C18.4315 18.4466 18.0974 18.0009 17.5927 17.6676C17.261 17.4491 16.8487 17.2785 16.3496 17.2251C15.8497 17.2785 15.4374 17.4491 15.1057 17.6676C14.601 18.0009 14.2669 18.4466 14.0867 18.772C13.7925 19.3046 13.275 19.6538 12.7145 19.7997C12.366 19.8906 11.9921 19.9034 11.6405 19.8324C11.2482 19.7535 10.8814 19.5717 10.5943 19.2807C10.2586 18.9394 10.0465 18.4729 10.0489 17.8797C10.0617 15.1177 10.4955 12.2034 11.3574 9.57611C11.2466 9.61039 11.1293 9.62873 11.0082 9.62873C10.3511 9.62873 9.8185 9.0961 9.8185 8.43908C9.8185 7.78286 10.3511 7.25023 11.0082 7.25023C11.4746 7.25023 11.8781 7.51974 12.0726 7.91124C12.1771 7.73263 12.2863 7.56439 12.4035 7.40572C11.5185 6.5677 10.1861 5.48171 8.89437 4.51612C5.48171 7.3818 3.58242 11.8964 3.84954 16.34C4.11187 20.7039 7.46074 25.3525 10.9787 27.8761C9.65026 26.3452 8.62726 24.5815 7.78287 22.6909C7.55562 22.1814 7.78367 21.585 8.29238 21.3578C8.80188 21.1305 9.3983 21.3586 9.62555 21.8681C11.1246 25.2233 13.165 28.0236 16.545 29.659C19.9249 28.0236 21.9653 25.2233 23.4644 21.8681C23.6916 21.3586 24.2888 21.1305 24.7975 21.3578C25.3062 21.585 25.5351 22.1814 25.3078 22.6909C24.5121 24.473 23.5569 26.1427 22.3377 27.6098C25.6858 25.0646 28.8521 20.5819 29.1064 16.34C29.3767 11.8478 27.4328 7.28452 23.9507 4.42362C23.6214 4.66921 23.2953 4.91718 22.9756 5.16436C23.1853 5.3039 23.3798 5.46337 23.5569 5.64038C24.233 6.31574 24.6508 7.24944 24.6508 8.27961C24.6508 9.31059 24.233 10.2435 23.5569 10.9188ZM19.8914 11.8685C19.5438 11.7696 19.2185 11.6221 18.9203 11.4331C18.9617 11.9658 18.5463 12.6627 17.3878 13.5262C17.379 13.5326 17.3702 13.5397 17.3622 13.5461V15.3673C17.8678 15.51 18.3135 15.7277 18.7002 15.9828C19.5398 16.5362 20.0892 17.2681 20.3834 17.7992C20.5046 17.9626 20.6401 17.8255 20.629 17.5847C20.5341 15.5889 20.3627 13.8132 19.8914 11.8685ZM17.8239 10.3671C15.6886 9.64229 11.5113 10.6956 15.3107 13.5262C15.3173 13.531 15.324 13.5364 15.3307 13.5414C15.3328 13.543 15.3349 13.5446 15.337 13.5461V15.3673C14.8307 15.51 14.3849 15.7277 13.9982 15.9828C13.1586 16.5362 12.6419 17.2339 12.3485 17.7657C12.193 17.9642 12.0694 17.847 12.071 17.5225C12.083 15.2827 12.6953 10.9651 13.7774 9.00441C14.003 8.59536 14.1824 8.40799 14.5085 8.09144C14.8905 7.71987 14.9957 7.12106 14.5516 6.66338C13.4664 5.55108 12.0654 4.36063 10.6374 3.27703C11.4786 2.7755 12.3916 2.35849 13.3723 2.04273C13.6354 1.95742 14.1617 2.15676 14.6792 2.3529C16.2364 2.94215 16.7196 2.94215 18.2776 2.3529C18.7943 2.15676 19.3213 1.95742 19.5837 2.04273C20.5134 2.34174 21.3817 2.73244 22.187 3.19889C21.5978 3.64302 21.0125 4.10708 20.4504 4.57592C19.6068 4.68197 18.8501 5.06868 18.2792 5.64038C17.6038 6.31574 17.186 7.24944 17.186 8.27961C17.186 9.05304 17.4212 9.77146 17.8239 10.3671ZM61.8177 8.62881C61.1918 8.62881 60.6831 9.13672 60.6831 9.76344L60.6775 17.9036C60.6767 18.8477 60.286 19.7104 59.6577 20.3387C59.0326 20.9638 58.1707 21.3521 57.2242 21.3521H57.2202V21.3569C56.2746 21.3561 55.4118 20.9662 54.7835 20.3387C54.1616 19.716 53.7749 18.8556 53.7749 17.9068V17.9036H53.7701L53.7773 9.76344C53.7773 9.13672 53.2686 8.62881 52.6418 8.62881C52.0159 8.62881 51.5072 9.13672 51.5072 9.76344L51.5008 17.9036H51.4968V17.9068C51.4968 19.4792 52.1427 20.9096 53.1816 21.9494C54.2158 22.9827 55.6455 23.6254 57.2202 23.6262V23.6302H57.2242C58.7998 23.6302 60.231 22.9867 61.2684 21.9494C62.3025 20.9152 62.9452 19.4823 62.9468 17.9036L62.9524 9.76344C62.9524 9.13672 62.4445 8.62881 61.8177 8.62881ZM38.5534 10.6868C38.7719 10.9052 39.0406 11.0137 39.3596 11.0137H42.7611V22.3504C42.7611 22.6694 42.8695 22.9389 43.088 23.1565C43.3064 23.375 43.5752 23.4843 43.8941 23.4843C44.2138 23.4843 44.4817 23.375 44.7002 23.1565C44.9195 22.9389 45.0279 22.6694 45.0279 22.3504V11.0137H48.4286C48.7484 11.0137 49.0171 10.9052 49.2348 10.6868C49.454 10.4683 49.5625 10.1996 49.5625 9.88065C49.5625 9.56091 49.454 9.293 49.2348 9.07453C49.0171 8.85606 48.7484 8.74682 48.4286 8.74682H39.3596C39.0406 8.74682 38.7719 8.85606 38.5534 9.07453C38.335 9.293 38.2257 9.56091 38.2257 9.88065C38.2257 10.1996 38.335 10.4683 38.5534 10.6868ZM65.0741 10.6868C65.2926 10.9052 65.5613 11.0137 65.8802 11.0137H69.2809V22.3504C69.2809 22.6694 69.3902 22.9389 69.6087 23.1565C69.8271 23.375 70.0958 23.4843 70.4148 23.4843C70.7337 23.4843 71.0024 23.375 71.2209 23.1565C71.4394 22.9389 71.5486 22.6694 71.5486 22.3504V11.0137H74.9493C75.2683 11.0137 75.537 10.9052 75.7554 10.6868C75.9739 10.4683 76.0831 10.1996 76.0831 9.88065C76.0831 9.56091 75.9739 9.293 75.7554 9.07453C75.537 8.85606 75.2683 8.74682 74.9493 8.74682H65.8802C65.5613 8.74682 65.2926 8.85606 65.0741 9.07453C64.8557 9.293 64.7464 9.56091 64.7464 9.88065C64.7464 10.1996 64.8557 10.4683 65.0741 10.6868ZM78.3907 10.5735C76.9212 12.0431 76.186 13.8275 76.186 15.927C76.186 18.0264 76.9212 19.8109 78.3907 21.2804C79.8602 22.7499 81.6447 23.4843 83.7441 23.4843C85.8435 23.4843 87.628 22.7499 89.0975 21.2804C90.567 19.8109 91.3022 18.0264 91.3022 15.927C91.3022 13.8275 90.567 12.0431 89.0975 10.5735C87.628 9.10403 85.8435 8.36887 83.7441 8.36887C81.6447 8.36887 79.8602 9.10403 78.3907 10.5735ZM80.0029 19.6673C78.9696 18.6348 78.4537 17.3877 78.4537 15.927C78.4537 14.4654 78.9696 13.2184 80.0029 12.1858C81.0355 11.1524 82.2825 10.6365 83.7441 10.6365C85.2048 10.6365 86.4527 11.1524 87.4853 12.1858C88.5178 13.2184 89.0345 14.4654 89.0345 15.927C89.0345 17.3877 88.5178 18.6348 87.4853 19.6673C86.4527 20.7007 85.2048 21.2174 83.7441 21.2174C82.2825 21.2174 81.0355 20.7007 80.0029 19.6673ZM94.0235 23.3997C94.6526 23.3997 95.1629 22.8902 95.1629 22.2611V10.9419H99.6496C100.534 10.9419 101.088 11.4076 101.324 12.0048C101.428 12.2687 101.48 12.5534 101.479 12.8364C101.479 13.1187 101.425 13.4041 101.321 13.6705C101.081 14.2804 100.523 14.7588 99.6496 14.7588H97.5733C96.945 14.7588 96.4347 15.2683 96.4347 15.8983C96.4347 16.1909 96.5448 16.4572 96.7266 16.6597L101.473 22.9755C101.849 23.4763 102.56 23.5783 103.062 23.202C103.563 22.8264 103.664 22.1152 103.288 21.6137L99.8458 17.0329C101.695 16.9611 102.897 15.8743 103.439 14.4981C103.644 13.9766 103.748 13.4081 103.748 12.8364C103.749 12.2663 103.648 11.6986 103.442 11.1771C102.884 9.76503 101.623 8.66389 99.6496 8.66389H94.0235C93.3944 8.66389 92.8841 9.1742 92.8841 9.80251V22.2611C92.8841 22.8902 93.3944 23.3997 94.0235 23.3997Z" fill="#101954"/>
<path fill-rule="evenodd" clip-rule="evenodd" d="M107.792 22.2613C107.792 22.8904 107.282 23.3999 106.653 23.3999C106.024 23.3999 105.514 22.8904 105.514 22.2613V9.80268C105.514 9.17437 106.024 8.66406 106.653 8.66406H112.28C114.252 8.66406 115.514 9.7652 116.071 11.1773C116.277 11.6988 116.379 12.2665 116.378 12.8366C116.377 13.4083 116.274 13.9768 116.069 14.4983C115.527 15.8745 114.324 16.9613 112.476 17.0331L115.917 21.6138C116.294 22.1154 116.192 22.8266 115.691 23.2022C115.189 23.5785 114.478 23.4764 114.102 22.9757L109.356 16.6599C109.175 16.4574 109.064 16.1911 109.064 15.8984C109.064 15.2685 109.574 14.759 110.203 14.759H112.28C113.152 14.759 113.71 14.2806 113.95 13.6706C114.055 13.4043 114.108 13.1189 114.109 12.8366C114.109 12.5535 114.057 12.2689 113.953 12.005C113.717 11.4077 113.163 10.9421 112.28 10.9421H107.792V22.2613Z" fill="#3166CF"/>
<defs>
<radialGradient id="paint0_radial" cx="0" cy="0" r="1" gradientUnits="userSpaceOnUse" gradientTransform="translate(0.154192 0.177732) rotate(12.08) scale(110.491 101.793)">
<stop stop-color="#101954"/>
<stop offset="0.441929" stop-color="#2737A0"/>
<stop offset="1" stop-color="#3B95FF"/>
</radialGradient>
</defs>
</svg>
