<svg width="20" height="20" viewBox="0 0 20 20" fill="none" xmlns="http://www.w3.org/2000/svg">
<rect width="20" height="20" rx="4" fill="#E77A2C"/>
<path fill-rule="evenodd" clip-rule="evenodd" d="M3.46752 3.70867C3.52134 4.89874 4.55352 9.44144 4.55352 9.44144C4.93324 10.3608 5.25952 9.44144 5.25952 9.44144C6.50872 5.70969 3.95651 3.54692 3.95651 3.54692C3.30395 3.1681 3.46752 3.70867 3.46752 3.70867ZM18.2931 3.05985C18.2931 3.05985 19.5426 3.92497 18.2931 4.08711C18.2931 4.08711 13.6226 4.62806 10.1469 7.87351C10.1469 7.87351 4.93323 12.4158 2.97803 17.3916C2.97803 17.3916 2.32691 17.3916 2.5445 16.4183C2.7615 15.4445 4.06452 11.1726 9.87512 5.92609C9.87512 5.92609 15.4695 0.842807 18.2931 3.05985Z" fill="white"/>
</svg>
