<svg width="24" height="24" viewBox="0 0 24 24" fill="none" xmlns="http://www.w3.org/2000/svg">
<rect width="24" height="24" rx="4" fill="#F2F4F7"/>
<path fill-rule="evenodd" clip-rule="evenodd" d="M16.2171 6.05565C15.5614 5.31677 14.3762 5 12.86 5H8.45943C8.14922 5 7.88562 5.22306 7.83705 5.5255L6.00476 17.0149C5.96833 17.2415 6.14576 17.4467 6.37803 17.4467H9.09474L9.77705 13.168L9.7559 13.3019C9.80447 12.9995 10.0661 12.7764 10.3759 12.7764H11.6669C14.2031 12.7764 16.1889 11.758 16.769 8.81174C16.7862 8.72461 16.8011 8.6398 16.814 8.55693C16.7408 8.51859 16.7408 8.51859 16.814 8.55693C16.9868 7.46797 16.8128 6.72676 16.2171 6.05565Z" fill="#003087"/>
<path fill-rule="evenodd" clip-rule="evenodd" d="M16.2171 6.05565C15.5614 5.31677 14.3762 5 12.86 5H8.45943C8.14922 5 7.88562 5.22306 7.83705 5.5255L6.00476 17.0149C5.96833 17.2415 6.14576 17.4467 6.37803 17.4467H9.09474L9.77705 13.168L9.7559 13.3019C9.80447 12.9995 10.0661 12.7764 10.3759 12.7764H11.6669C14.2031 12.7764 16.1889 11.758 16.769 8.81174C16.7862 8.72461 16.8011 8.6398 16.814 8.55693C16.7408 8.51859 16.7408 8.51859 16.814 8.55693C16.9868 7.46797 16.8128 6.72676 16.2171 6.05565Z" fill="#003087"/>
<path fill-rule="evenodd" clip-rule="evenodd" d="M10.5105 8.57125C10.5395 8.38925 10.6578 8.24015 10.8168 8.16464C10.8893 8.13056 10.97 8.11158 11.0546 8.11158H14.5045C14.913 8.11158 15.2942 8.13792 15.6424 8.1933C15.7422 8.20916 15.839 8.22737 15.933 8.24829C16.027 8.26879 16.1183 8.29204 16.2068 8.3176C16.251 8.33037 16.2945 8.34357 16.3372 8.35749C16.5084 8.41403 16.6678 8.47986 16.8143 8.55693C16.987 7.46758 16.813 6.72676 16.2173 6.05565C15.5613 5.31677 14.3764 5 12.8602 5H8.45929C8.14946 5 7.88586 5.22306 7.83729 5.5255L6.005 17.0146C5.96857 17.2415 6.14601 17.4463 6.37788 17.4463H9.09499L9.7773 13.1676L10.5105 8.57125Z" fill="#002F86"/>
<path fill-rule="evenodd" clip-rule="evenodd" d="M16.8141 8.55713C16.8008 8.64039 16.7863 8.72481 16.7691 8.81194C16.189 11.7578 14.2032 12.7766 11.667 12.7766H10.3756C10.0658 12.7766 9.80416 12.9997 9.75598 13.3021L9.09482 17.4465L8.90721 18.6222C8.87548 18.8205 9.03059 19.0002 9.23348 19.0002H11.5236C11.7947 19.0002 12.0254 18.805 12.0677 18.5405L12.09 18.4251L12.5217 15.7206L12.5495 15.5711C12.5918 15.3066 12.8225 15.1114 13.0935 15.1114H13.4363C15.6548 15.1114 17.3919 14.2203 17.8995 11.6432C18.1114 10.5662 18.0017 9.667 17.4412 9.03539C17.2712 8.84408 17.0601 8.68608 16.8141 8.55713" fill="#009CDE"/>
<path fill-rule="evenodd" clip-rule="evenodd" d="M16.2067 8.31735C16.1182 8.29179 16.0269 8.26855 15.9329 8.24803C15.8389 8.22749 15.7418 8.2093 15.6423 8.19343C15.2937 8.13766 14.913 8.11133 14.5041 8.11133H11.0545C10.9695 8.11133 10.8889 8.13032 10.8168 8.16477C10.6574 8.24028 10.5395 8.38899 10.5105 8.57139L9.77725 13.1677L9.7561 13.3017C9.80428 12.9992 10.0659 12.7762 10.3757 12.7762H11.6671C14.2033 12.7762 16.1891 11.7577 16.7692 8.81148C16.7864 8.72435 16.8009 8.63993 16.8142 8.55667C16.6673 8.47999 16.5083 8.41377 16.3372 8.35762C16.2945 8.34368 16.251 8.33011 16.2067 8.31735Z" fill="#012069"/>
</svg>
