<svg width="26" height="34" viewBox="0 0 26 34" fill="none" xmlns="http://www.w3.org/2000/svg">
<mask id="mask0" mask-type="alpha" maskUnits="userSpaceOnUse" x="0" y="0" width="26" height="34">
<path fill-rule="evenodd" clip-rule="evenodd" d="M2.6 34C1.17 34 0 32.7661 0 31.2581V2.74194C0 1.23387 1.17 0 2.6 0H17.182C17.884 0 18.534 0.274194 19.028 0.795161L25.246 7.25847C25.74 7.77944 26 8.46492 26 9.20524V31.2581C26 32.7661 24.83 34 23.4 34H2.6Z" fill="white"/>
</mask>
<g mask="url(#mask0)">
<path fill-rule="evenodd" clip-rule="evenodd" d="M2.6 34C1.17 34 0 32.7661 0 31.2581V2.74194C0 1.23387 1.17 0 2.6 0H17.182C17.884 0 18.534 0.274194 19.028 0.795161L25.246 7.25847C25.74 7.77944 26 8.46492 26 9.20524V31.2581C26 32.7661 24.83 34 23.4 34H2.6Z" fill="#DE3021"/>
<path d="M4.26172 15.9541V23H5.73633V20.8125H7.12793C8.6123 20.8125 9.64258 19.8408 9.64258 18.3906C9.64258 16.9258 8.65137 15.9541 7.20117 15.9541H4.26172ZM5.73633 17.165H6.81055C7.66016 17.165 8.14355 17.5947 8.14355 18.3955C8.14355 19.1865 7.65039 19.6162 6.80566 19.6162H5.73633V17.165ZM11 15.9492V23H13.7734C15.8828 23 17.0791 21.7158 17.0791 19.4258C17.0791 17.2188 15.8682 15.9492 13.7734 15.9492H11ZM12.4746 17.209H13.5391C14.8184 17.209 15.5752 18.0244 15.5752 19.4502C15.5752 20.9395 14.8428 21.7402 13.5391 21.7402H12.4746V17.209ZM19.9453 23V20.2559H22.8115V19.0498H19.9453V17.2139H23.085V15.9541H18.4707V23H19.9453Z" fill="white"/>
<path opacity="0.3" fill-rule="evenodd" clip-rule="evenodd" d="M18 -1L28 9H18V-1Z" fill="white"/>
</g>
</svg>
